<?xml version="1.0" standalone="no"?>
<!DOCTYPE svg PUBLIC "-//W3C//DTD SVG 20010904//EN"
 "http://www.w3.org/TR/2001/REC-SVG-20010904/DTD/svg10.dtd">
<svg version="1.0" xmlns="http://www.w3.org/2000/svg"
 width="1200.000000pt" height="900.000000pt" viewBox="0 0 1200.000000 900.000000"
 preserveAspectRatio="xMidYMid meet">

<g transform="translate(0.000000,900.000000) scale(0.100000,-0.100000)"
fill="#000000" stroke="none">
<path d="M3426 8424 c-3 -9 -6 -88 -6 -177 0 -217 -9 -202 213 -331 l97 -57 0
-79 c0 -44 2 -80 5 -80 3 0 34 18 70 39 l64 39 49 -26 c83 -44 84 -42 80 178
-3 187 -3 190 -28 214 -34 32 -497 296 -520 296 -10 0 -21 -7 -24 -16z m184
-200 c0 -8 -4 -14 -8 -14 -5 0 -16 -6 -26 -13 -18 -13 -18 -16 8 -59 26 -45
32 -68 18 -68 -8 0 -86 130 -80 135 2 1 18 12 37 23 36 22 51 21 51 -4z m124
-146 c-41 -83 -58 -108 -67 -99 -17 17 92 235 110 220 10 -9 0 -35 -43 -121z
m140 -29 c20 -33 36 -64 36 -69 0 -5 -16 -18 -36 -30 -25 -16 -39 -19 -46 -12
-13 13 4 38 33 47 17 6 17 9 -11 59 -32 56 -35 66 -21 66 5 0 25 -27 45 -61z"/>
<path d="M8068 7863 l-48 -26 51 -17 c63 -22 114 -62 161 -130 110 -156 103
-326 -20 -462 l-37 -41 45 28 c184 113 253 299 173 467 -17 37 -53 91 -80 119
-86 92 -158 111 -245 62z"/>
<path d="M9533 7768 c-13 -6 -23 -14 -23 -18 0 -5 291 -176 646 -380 l645
-373 -2 -514 c-1 -282 -5 -515 -8 -517 -3 -3 -87 144 -185 325 -98 181 -182
331 -185 334 -9 5 -204 -44 -214 -55 -5 -4 58 -126 139 -271 81 -145 160 -286
174 -312 24 -42 41 -56 146 -117 65 -38 125 -70 132 -70 7 0 24 7 37 16 l25
16 0 602 0 603 -644 371 c-354 205 -648 372 -652 371 -5 0 -19 -5 -31 -11z"/>
<path d="M6685 7707 c8 -30 -21 -56 -68 -64 -33 -5 -37 -3 -43 21 -4 16 -1 33
7 44 13 16 12 16 -11 1 -30 -20 -39 -68 -15 -85 15 -11 14 -22 -5 -135 -19
-110 -20 -175 -3 -201 2 -5 16 6 30 22 l26 31 -8 135 -7 135 26 -7 c17 -4 38
2 66 17 48 27 61 60 35 89 -24 27 -37 25 -30 -3z"/>
<path d="M8040 7681 c-45 -85 64 -252 138 -212 28 15 37 64 18 98 -8 15 -24
46 -35 69 -30 59 -99 85 -121 45z"/>
<path d="M2334 7601 c3 -5 31 -23 61 -40 33 -19 60 -42 65 -57 6 -14 10 -93
10 -175 0 -98 4 -148 10 -144 6 4 10 73 10 174 0 188 4 176 -81 225 -45 25
-86 35 -75 17z"/>
<path d="M4207 7542 c-27 -16 -69 -90 -81 -142 -6 -23 -5 -23 6 -6 22 33 80
96 88 96 4 0 13 -23 20 -50 15 -61 86 -162 130 -185 33 -17 37 -42 10 -55 -8
-4 -28 -15 -45 -24 -16 -9 -42 -22 -57 -27 -16 -6 -28 -14 -28 -17 1 -4 30
-25 66 -47 73 -45 114 -86 114 -117 0 -11 -13 -33 -30 -48 -16 -15 -30 -33
-30 -40 0 -21 82 -50 143 -50 91 0 154 45 164 118 8 59 -18 104 -94 159 -35
26 -66 57 -68 68 -2 11 -6 62 -9 113 -8 133 -50 217 -128 258 -38 20 -136 18
-171 -4z"/>
<path d="M5735 7505 c-44 -26 -88 -54 -99 -63 -47 -42 -46 -2 -46 -1334 l0
-1253 28 -18 c27 -18 64 -39 132 -74 19 -10 37 -21 40 -24 3 -3 32 -21 65 -39
33 -18 74 -42 90 -52 17 -10 48 -27 70 -39 22 -11 69 -38 105 -60 36 -21 76
-44 90 -50 13 -5 27 -14 30 -18 15 -23 97 -51 149 -50 104 1 170 14 186 35 42
53 67 33 -430 320 l-465 269 0 1073 c0 1165 -2 1115 55 1160 37 29 59 27 130
-11 59 -31 60 -33 63 -77 3 -45 4 -47 65 -80 34 -19 67 -35 74 -35 6 0 15 -4
20 -9 4 -5 3 -6 -4 -2 -17 10 -17 8 16 -108 49 -169 50 -157 -13 -291 -31 -65
-56 -130 -56 -144 0 -16 -8 -31 -21 -39 -14 -9 -18 -19 -13 -34 5 -17 3 -20
-10 -15 -9 4 -16 3 -16 -2 0 -4 -12 -13 -27 -20 -23 -11 -29 -10 -37 2 -7 11
-15 12 -37 4 -24 -10 -27 -15 -22 -41 3 -17 8 -33 10 -36 11 -13 126 -1 190
19 73 23 112 54 113 90 1 9 16 45 35 81 28 52 33 58 28 31 -3 -20 -1 -36 5
-40 6 -4 9 -17 5 -29 -3 -12 -10 -19 -16 -15 -5 3 -7 1 -4 -5 12 -18 -4 -44
-24 -39 -12 3 -22 -5 -33 -27 -14 -28 -14 -31 2 -35 9 -2 20 -8 24 -15 16 -24
82 27 135 105 60 90 67 125 35 169 -13 17 -20 34 -18 39 3 5 -2 29 -11 55 -17
44 -16 47 4 88 19 39 27 45 86 66 36 12 72 22 79 22 7 0 101 -51 208 -113
l195 -113 5 -104 c7 -132 36 -215 94 -275 42 -43 622 -385 701 -414 l40 -14
94 56 94 56 42 -25 c23 -13 49 -24 58 -24 9 0 19 -4 22 -10 3 -6 -1 -7 -10 -4
-11 5 -20 -5 -31 -32 -8 -22 -24 -57 -34 -79 -42 -90 -100 -247 -100 -271 0
-30 41 -74 69 -74 51 0 68 17 104 108 20 49 45 116 56 148 11 33 27 76 35 96
l16 37 30 -17 c23 -14 28 -22 23 -41 -6 -24 19 -111 77 -271 15 -41 37 -105
50 -143 23 -70 47 -97 88 -97 30 0 72 42 72 73 0 26 -23 102 -47 155 -20 46
-63 173 -63 188 0 7 27 21 59 32 l59 20 139 -79 c153 -87 190 -122 237 -219
l31 -65 3 -1103 2 -1104 -32 20 c-18 11 -397 230 -843 487 -445 257 -856 494
-913 528 -97 56 -105 59 -120 43 -11 -11 -19 -41 -23 -89 -4 -40 -10 -81 -13
-92 -7 -21 -7 -21 129 -93 17 -9 36 -21 43 -28 6 -7 22 -16 35 -20 12 -3 29
-12 37 -19 8 -7 38 -25 65 -40 98 -54 135 -77 143 -90 4 -8 6 -94 4 -192 l-3
-178 -29 -17 -30 -17 -2 186 -3 187 -55 32 -55 32 -3 -78 c-2 -65 -5 -78 -17
-73 -12 4 -15 25 -15 89 0 83 0 84 -30 99 l-30 16 0 -55 c0 -45 -3 -54 -15
-50 -11 5 -15 22 -15 64 0 50 -3 60 -25 74 -13 9 -27 16 -30 16 -3 0 -5 -34
-5 -76 0 -56 -3 -75 -12 -72 -9 3 -14 31 -16 84 -2 68 -6 81 -25 96 -12 10
-25 18 -29 18 -5 0 -8 -25 -8 -56 0 -49 -2 -55 -15 -44 -10 8 -15 31 -15 66 0
43 -4 56 -22 68 -12 9 -26 16 -30 16 -5 0 -8 -34 -8 -75 0 -85 -19 -105 -21
-22 -1 28 -1 60 0 70 3 20 3 20 -38 6 -17 -6 -31 -15 -31 -21 0 -6 -6 -8 -14
-5 -17 7 -286 -81 -286 -93 0 -4 38 -30 85 -56 47 -26 85 -50 85 -53 0 -4 -55
-34 -123 -68 l-123 -61 -19 -62 c-21 -69 -48 -110 -73 -110 -11 0 -29 -26 -51
-71 -38 -79 -67 -104 -110 -96 -33 7 -65 -20 -59 -50 2 -13 14 -19 45 -21 60
-4 100 19 114 68 14 45 16 46 39 25 26 -24 803 -471 841 -484 49 -17 176 -13
234 7 28 10 155 89 284 176 129 88 239 159 245 159 6 0 216 -118 466 -263 250
-145 470 -269 489 -277 44 -19 64 -13 173 49 76 44 94 58 109 92 18 39 19 99
19 1356 0 1412 2 1360 -51 1465 -40 79 -84 120 -205 191 -91 53 -114 70 -108
83 4 9 9 47 10 84 1 37 7 73 12 80 52 65 59 177 22 315 -26 96 -40 116 -97
142 -43 19 -43 19 -43 -1 0 -47 -119 -78 -168 -43 -26 18 -28 41 -5 66 13 15
14 18 2 18 -21 0 -39 -21 -39 -45 0 -11 -16 -40 -36 -65 -24 -31 -33 -51 -29
-65 19 -68 18 -74 -19 -111 -31 -31 -40 -35 -66 -29 -46 10 -80 -16 -80 -61 0
-21 -4 -33 -10 -29 -5 3 -10 2 -10 -2 0 -17 176 -113 207 -113 26 0 106 16
176 36 13 4 17 -1 17 -18 0 -13 6 -30 12 -36 17 -17 -1 -28 -61 -36 -34 -4
-49 -12 -56 -27 -10 -22 -235 -159 -260 -159 -8 0 -17 5 -21 12 -5 7 -3 8 5 3
10 -6 11 22 6 136 -4 79 -11 153 -15 164 -6 16 -190 129 -324 198 -15 8 -23
17 -19 20 5 3 50 -18 99 -48 77 -46 94 -52 122 -47 33 7 33 7 -61 62 l-95 54
-5 47 c-7 61 -40 129 -86 178 -46 50 -668 411 -721 418 -28 4 -49 -3 -104 -35
-61 -35 -72 -39 -90 -27 -12 7 -53 31 -93 54 l-72 42 19 32 c19 30 29 137 14
137 -4 0 -22 -9 -40 -21 -22 -13 -51 -21 -81 -21 -80 0 -161 -18 -166 -37 -5
-21 -254 -164 -269 -155 -6 4 -6 9 -1 13 8 6 -1 248 -12 296 -2 11 -17 27 -32
36 -238 137 -313 182 -309 186 2 2 48 -21 101 -51 62 -36 102 -53 111 -48 21
12 -229 154 -280 159 -35 3 -54 -3 -121 -42z m375 -250 c17 -20 8 -49 -16 -53
-25 -4 -59 32 -51 53 8 19 51 20 67 0z m94 -246 c20 -12 36 -23 36 -25 0 -5
-44 18 -70 35 -27 19 -2 11 34 -10z m948 -344 c31 -21 95 -121 84 -132 -9 -9
-56 10 -56 22 0 22 -50 75 -71 75 -60 0 -42 -166 22 -201 19 -10 25 -9 39 9
l17 21 27 -27 c24 -26 25 -29 10 -50 -39 -56 -132 -7 -185 98 -29 59 -32 159
-4 190 25 27 72 26 117 -5z m230 -135 c44 -29 78 -79 78 -114 0 -22 -16 -20
-36 3 -70 83 -94 99 -94 62 0 -10 24 -39 54 -64 75 -65 109 -150 74 -185 -30
-30 -123 11 -163 72 -16 25 -37 87 -31 93 9 9 56 -22 56 -38 0 -22 53 -79 74
-79 10 0 16 9 16 25 0 16 -14 36 -46 62 -48 40 -94 107 -94 137 0 30 20 56 44
56 12 0 43 -14 68 -30z m192 -110 c43 -16 105 -80 116 -118 5 -20 8 -38 5 -40
-8 -9 -40 18 -65 54 -14 22 -36 40 -48 42 -37 6 -26 -23 28 -68 67 -56 92 -99
88 -151 -4 -53 -24 -67 -69 -49 -42 18 -96 65 -115 101 -14 28 -19 69 -8 69
18 0 43 -24 52 -49 12 -34 55 -66 77 -57 26 10 17 25 -49 89 -40 38 -67 73
-71 92 -4 17 -8 35 -10 41 -4 14 22 54 35 54 5 0 20 -4 34 -10z m881 -310 c-5
-16 -13 -20 -33 -18 -37 4 -37 22 0 34 40 12 42 11 33 -16z m-365 -20 c24 -24
25 -33 5 -50 -29 -24 -85 36 -58 63 12 12 33 7 53 -13z"/>
<path d="M6254 7301 c3 -4 45 -31 93 -58 119 -67 202 -73 148 -11 -19 22 -29
26 -57 22 -24 -4 -48 3 -92 25 -57 30 -103 41 -92 22z"/>
<path d="M6292 7198 c3 -45 6 -53 24 -56 18 -3 100 36 92 43 -7 7 -109 65
-114 65 -3 0 -4 -24 -2 -52z"/>
<path d="M2427 6988 c-10 -264 -9 -330 6 -326 9 4 13 65 15 251 1 136 -2 247
-6 247 -5 0 -12 -78 -15 -172z"/>
<path d="M6293 7109 c4 -13 7 -41 7 -62 l0 -38 50 27 c28 15 47 31 43 34 -5 4
-30 20 -57 36 l-49 28 6 -25z"/>
<path d="M10274 7109 c-28 -31 -25 -130 4 -186 76 -145 212 -194 241 -86 24
85 -38 218 -125 269 -51 30 -95 31 -120 3z"/>
<path d="M8531 7000 c-42 -10 -80 -38 -108 -80 -27 -38 -30 -103 -10 -196 l12
-59 5 102 c3 56 8 105 12 109 4 3 24 -8 45 -26 54 -48 118 -73 193 -75 69 -3
87 -18 58 -52 -7 -9 -24 -40 -38 -69 l-26 -53 23 -6 c13 -3 27 -14 31 -25 7
-19 8 -19 40 0 59 36 62 78 15 214 -12 38 -23 78 -23 88 0 10 -16 35 -35 57
-55 61 -127 87 -194 71z"/>
<path d="M8417 6601 c-6 -25 0 -31 30 -31 24 0 24 0 6 25 -22 30 -29 31 -36 6z"/>
<path d="M2290 6466 c0 -71 2 -77 27 -93 39 -26 123 -24 160 3 26 19 28 27 31
93 l3 72 -28 -8 c-37 -10 -142 -10 -170 0 -23 8 -23 7 -23 -67z"/>
<path d="M2251 5749 l-1 -646 23 -33 c62 -92 181 -90 251 4 21 27 21 39 24
674 l3 646 -23 -21 c-33 -31 -71 -43 -134 -43 -56 0 -127 27 -137 52 -3 7 -6
-278 -6 -633z"/>
<path d="M8274 6058 c3 -13 6 -35 6 -49 0 -15 7 -30 16 -33 16 -6 94 29 94 43
0 9 -92 61 -110 61 -8 0 -10 -8 -6 -22z"/>
<path d="M8283 5909 c4 -29 8 -54 11 -56 5 -6 86 40 86 49 0 7 -84 58 -96 58
-4 0 -4 -23 -1 -51z"/>
<path d="M4740 5802 c0 -11 7 -22 15 -26 8 -3 15 -17 15 -31 0 -14 5 -46 11
-71 11 -41 10 -47 -10 -68 -23 -24 -27 -60 -11 -100 12 -34 43 -33 69 0 45 57
9 242 -56 292 -32 23 -33 24 -33 4z"/>
<path d="M3093 5730 c-13 -6 -26 -24 -33 -47 -8 -27 -10 -308 -8 -948 l3 -910
48 -3 c27 -1 63 -10 80 -19 18 -8 280 -159 582 -333 303 -174 755 -435 1005
-580 250 -144 461 -269 468 -278 19 -24 14 -56 -10 -79 -28 -26 -839 -495
-845 -489 -11 11 -33 120 -26 127 4 4 141 84 303 178 162 93 310 182 329 198
58 49 45 66 -126 164 -81 47 -485 280 -898 519 -412 238 -766 440 -785 448
-23 9 -53 12 -89 9 -45 -5 -86 -24 -257 -123 -112 -64 -202 -120 -199 -124 3
-4 73 -47 156 -95 94 -55 153 -95 159 -109 11 -29 8 -29 -33 -10 -33 16 -37
16 -61 0 -48 -31 -80 -102 -65 -144 5 -12 20 -27 34 -34 14 -6 25 -15 25 -20
0 -11 -63 -10 -75 1 -6 5 -105 63 -222 130 l-212 121 -72 -42 c-86 -51 -116
-86 -100 -116 6 -11 88 -65 183 -119 95 -55 503 -290 906 -523 l733 -423 -8
-56 c-4 -31 -7 -88 -6 -127 l2 -71 -177 -101 c-97 -56 -192 -107 -210 -113
-18 -6 -59 -9 -90 -7 -54 5 -110 36 -1082 597 -564 326 -1033 600 -1042 608
-17 15 -18 14 -18 -5 0 -11 10 -32 23 -46 17 -19 787 -468 1975 -1151 100 -57
145 -69 209 -54 28 6 128 56 241 121 164 94 194 108 208 97 12 -10 14 -23 9
-55 -9 -62 10 -103 123 -263 56 -79 102 -146 102 -150 0 -3 -25 -91 -55 -195
-57 -197 -68 -284 -42 -320 8 -10 31 -25 53 -33 120 -46 142 -52 174 -53 46 0
58 9 62 45 2 24 -2 31 -25 39 -22 8 -30 7 -37 -4 -8 -12 -10 -12 -10 3 0 10
-4 16 -9 13 -16 -10 -42 6 -36 22 5 13 3 13 -12 1 -15 -12 -16 -12 -10 5 5 11
2 25 -7 35 -12 14 -6 43 50 231 35 118 67 229 70 246 5 26 -5 52 -60 151 -68
122 -74 139 -55 145 16 5 -47 34 -104 49 -37 9 -45 14 -33 21 9 5 16 16 16 23
0 8 5 15 10 15 6 0 10 6 10 14 0 8 8 14 18 13 16 -1 145 71 280 155 18 11 35
18 38 15 3 -3 -8 -13 -25 -21 -17 -9 -35 -24 -40 -34 -5 -9 -12 -86 -16 -169
-4 -84 -10 -153 -13 -153 -2 0 -28 14 -56 30 l-51 31 55 -51 c30 -27 74 -65
97 -82 38 -31 46 -46 109 -213 37 -99 72 -189 79 -200 7 -11 15 -32 19 -47 8
-35 24 -43 125 -63 84 -18 164 -14 177 7 4 6 8 24 9 39 2 24 -2 29 -28 35 -20
4 -33 2 -35 -5 -2 -6 -8 -11 -13 -11 -6 0 -7 4 -4 10 3 5 1 10 -4 10 -6 0 -11
-6 -12 -12 0 -7 -4 -4 -9 7 -5 11 -9 14 -9 8 -1 -7 -6 -13 -12 -13 -6 0 -8 7
-5 16 5 14 4 15 -9 4 -12 -10 -15 -9 -15 5 0 10 -7 23 -16 29 -8 7 -56 120
-105 251 -69 182 -98 248 -122 273 -18 18 -25 32 -17 32 10 0 192 100 207 114
5 4 24 318 20 323 -3 2 -64 -30 -136 -72 -76 -44 -136 -73 -143 -69 -7 4 -28
7 -48 6 -27 -2 -42 4 -59 22 -13 14 -21 30 -19 36 2 7 132 86 288 177 532 307
581 336 591 354 6 12 8 371 7 966 l-3 948 -22 40 c-11 22 -32 50 -45 62 -39
37 -2068 1203 -2091 1202 -12 0 -32 -4 -44 -9z m922 -621 c451 -260 902 -520
1003 -578 l182 -105 0 -859 0 -859 -32 20 c-30 18 -584 338 -1645 950 l-393
227 0 858 0 859 33 -20 c17 -11 401 -232 852 -493z m163 -38 c3 -16 -1 -22
-10 -19 -7 3 -15 15 -16 27 -3 16 1 22 10 19 7 -3 15 -15 16 -27z m-1174
-1928 c5 -11 18 -14 50 -11 l44 3 71 -97 c39 -54 66 -98 61 -98 -21 0 -120 67
-129 88 -14 29 -41 29 -41 -1 0 -28 34 -64 45 -47 4 7 26 0 63 -21 31 -18 61
-35 65 -39 5 -4 -23 -15 -62 -25 l-71 -17 -68 71 c-56 59 -72 71 -99 71 -43 0
-53 33 -26 87 27 56 82 77 97 36z m1378 -485 c61 -18 64 -22 42 -55 -15 -24
-18 -49 -18 -161 l-1 -134 -33 -29 c-18 -16 -41 -29 -53 -29 -19 0 -19 -1 -5
-22 20 -28 20 -57 1 -78 -12 -14 -12 -31 6 -140 16 -100 18 -133 9 -162 -6
-21 -13 -38 -16 -38 -3 0 -16 12 -29 28 -25 27 -25 29 -19 157 l7 130 -31 1
c-42 1 -101 40 -109 72 -5 20 0 30 20 48 15 13 27 28 27 33 0 6 -18 24 -40 42
-58 47 -84 107 -77 176 7 68 37 109 109 152 46 27 60 30 108 27 30 -3 76 -11
102 -18z m306 -821 c5 -25 -16 -47 -45 -47 -31 0 -40 26 -17 51 21 24 57 21
62 -4z m-168 -251 c0 -2 -7 -7 -16 -10 -8 -3 -12 -2 -9 4 6 10 25 14 25 6z"/>
<path d="M3760 4734 c-25 -14 -46 -27 -48 -29 -2 -1 64 -41 145 -87 172 -98
621 -357 644 -371 8 -5 25 -24 37 -42 22 -32 23 -37 20 -324 -2 -160 -1 -291
3 -291 3 0 26 13 52 30 l47 30 0 292 c0 266 -2 296 -18 323 -14 22 -96 74
-313 199 -162 94 -343 198 -403 233 -61 35 -112 63 -115 63 -4 0 -26 -12 -51
-26z"/>
<path d="M4467 5694 c-3 -4 -4 -18 -1 -33 7 -31 -29 -143 -48 -153 -7 -4 -20
-9 -29 -11 -18 -6 -45 -89 -34 -106 8 -14 50 -14 76 -1 31 17 59 85 70 170 8
67 7 85 -6 110 -17 32 -18 33 -28 24z"/>
<path d="M10273 5408 l-43 -70 19 -56 c11 -32 22 -77 26 -102 6 -40 4 -48 -19
-69 -23 -21 -26 -33 -26 -88 0 -73 17 -98 73 -108 36 -7 112 9 123 26 3 6 6
44 6 85 0 64 -3 77 -21 92 l-22 17 21 40 c11 21 20 44 20 50 0 5 -19 62 -42
125 l-43 115 -3 -77 c-2 -43 2 -87 8 -97 5 -11 10 -32 10 -46 0 -34 -28 -30
-49 7 -13 22 -13 31 -3 50 8 15 12 52 10 99 l-3 76 -42 -69z m51 -328 l53 -30
7 32 c6 29 8 30 22 17 19 -20 10 -43 -22 -58 -64 -29 -146 6 -128 54 8 19 6
20 68 -15z"/>
<path d="M6700 5203 c-33 -13 -72 -47 -96 -84 -20 -32 -24 -50 -23 -111 2
-116 15 -138 20 -31 2 50 7 95 12 99 4 4 22 -6 40 -24 47 -46 121 -75 196 -77
73 -3 82 -12 55 -53 -10 -15 -28 -48 -40 -73 -12 -26 -27 -50 -33 -53 -6 -4
-11 -13 -11 -19 1 -14 80 -64 117 -73 28 -7 53 -53 73 -136 7 -27 17 -48 23
-48 19 0 106 61 137 97 l31 35 -28 18 c-42 26 -67 58 -105 135 -42 84 -52 111
-73 194 -28 110 -73 176 -138 200 -29 11 -131 14 -157 4z"/>
<path d="M5070 4883 l1 -188 222 -126 c122 -70 372 -213 555 -318 184 -105
335 -191 338 -191 6 0 5 41 -2 65 -3 11 -22 30 -43 42 -33 19 -39 28 -45 69
-3 26 -6 73 -6 104 0 49 -3 58 -17 56 -15 -1 -18 9 -21 60 -3 54 -6 62 -28 73
-14 6 -27 11 -29 11 -3 0 -5 -34 -5 -76 0 -56 -3 -75 -12 -72 -9 3 -14 33 -16
90 -3 80 -4 86 -28 97 -35 16 -34 17 -34 -40 0 -74 -24 -60 -28 16 -2 41 -8
63 -20 71 -35 27 -42 17 -42 -62 0 -62 -2 -74 -13 -65 -9 7 -13 33 -11 86 2
72 0 76 -26 95 -15 11 -30 17 -34 13 -3 -3 -6 -28 -6 -55 0 -30 -4 -47 -10
-43 -5 3 -10 30 -10 60 0 48 -3 56 -29 74 -16 12 -32 21 -35 21 -3 0 -6 -36
-6 -81 0 -51 -4 -78 -10 -74 -5 3 -10 43 -10 88 0 80 -1 82 -29 99 -16 9 -32
14 -35 10 -3 -3 -6 -27 -6 -54 0 -30 -4 -47 -10 -43 -5 3 -10 32 -10 63 0 53
-2 59 -29 75 -16 10 -32 14 -34 10 -3 -5 -4 -38 -3 -76 1 -48 -3 -67 -11 -67
-10 0 -13 24 -13 85 0 84 0 85 -30 100 l-30 16 0 -51 c0 -38 -4 -50 -15 -50
-12 0 -15 13 -15 59 0 51 -3 61 -25 75 -13 9 -27 16 -30 16 -3 0 -5 -34 -5
-76 0 -56 -3 -75 -12 -72 -9 3 -14 31 -16 84 -2 66 -6 82 -23 97 -33 27 -39
21 -39 -34 0 -75 -24 -60 -28 18 -3 63 -1 61 -84 101 -5 2 -8 -81 -8 -185z"/>
<path d="M6598 4749 c-2 -47 1 -64 14 -76 22 -19 35 -11 43 30 4 17 12 38 17
45 7 8 7 12 0 12 -6 0 -24 11 -40 25 l-30 25 -4 -61z"/>
<path d="M6570 4314 l-35 -13 43 0 c31 -1 42 3 42 14 0 17 -3 17 -50 -1z"/>
<path d="M6351 4010 l1 -45 11 33 c7 24 7 36 -1 44 -9 9 -12 1 -11 -32z"/>
<path d="M6131 3514 c-27 -34 -24 -58 8 -62 42 -6 69 7 80 39 16 46 14 50 -15
39 -18 -7 -31 -7 -39 0 -10 8 -18 4 -34 -16z"/>
<path d="M9383 2919 c-17 -11 -33 -30 -35 -42 -2 -12 -4 -245 -3 -517 l0 -494
28 -16 c27 -14 29 -14 49 10 l20 25 28 -34 c29 -33 29 -33 97 -27 37 3 148 13
246 21 98 8 184 18 192 22 7 5 61 75 119 156 121 168 126 185 76 258 -54 80
-185 233 -212 249 -45 25 -86 -6 -171 -126 -39 -56 -75 -100 -79 -97 -4 2 -7
99 -5 216 3 266 7 257 -158 351 -63 36 -125 66 -137 66 -13 0 -37 -9 -55 -21z"/>
<path d="M2456 2540 c-104 -60 -194 -117 -199 -126 -13 -23 -20 -18 263 -181
186 -108 243 -136 272 -136 29 0 75 22 200 93 183 104 228 135 228 154 0 7
-114 79 -254 160 -190 110 -262 146 -287 146 -25 0 -84 -29 -223 -110z"/>
<path d="M6436 2439 c-33 -11 -62 -21 -64 -24 -3 -3 7 -22 21 -43 41 -63 108
-85 209 -69 45 8 47 7 63 -22 9 -19 23 -31 35 -31 24 0 28 -44 6 -57 -7 -4
-18 -24 -25 -44 -6 -20 -23 -51 -36 -69 l-25 -33 53 -32 c28 -17 60 -34 70
-38 13 -5 80 29 233 118 118 69 225 131 238 136 21 10 91 -28 637 -343 338
-195 741 -428 897 -518 155 -89 282 -166 282 -170 0 -4 -295 -179 -655 -388
l-655 -381 -553 319 c-303 175 -553 316 -554 312 -1 -4 -4 -19 -7 -34 -7 -33
-31 -58 -55 -58 -12 0 -25 16 -38 48 -11 26 -33 63 -49 83 -27 33 -32 35 -79
32 -27 -2 -63 -8 -79 -13 -44 -15 -55 -12 -62 14 -7 29 9 63 42 91 l24 21
-178 102 c-240 137 -225 124 -174 156 49 31 62 32 62 8 0 -10 6 -27 14 -37 13
-18 14 -18 9 9 -3 16 -2 27 3 24 5 -3 89 -51 186 -107 152 -88 180 -101 197
-91 12 6 21 13 21 16 0 2 -9 0 -19 -6 -11 -5 -22 -10 -24 -10 -2 0 -7 57 -11
128 -11 222 -13 230 -55 256 -71 46 -334 196 -343 196 -4 0 -8 -28 -8 -62 l0
-63 -108 -62 c-147 -85 -154 -94 -159 -190 -4 -64 -1 -83 15 -108 14 -23 250
-164 988 -589 615 -356 987 -565 1019 -573 27 -7 66 -13 86 -13 106 0 124 9
739 366 327 190 605 356 618 370 19 22 22 36 22 110 0 82 -1 85 -32 118 -39
41 -1911 1123 -1977 1143 -57 17 -146 17 -205 -1 -25 -8 -91 -39 -145 -70 -55
-31 -101 -56 -103 -56 -1 0 -3 24 -4 54 0 74 -33 122 -112 164 -69 37 -108 39
-196 11z m-230 -805 c15 -23 16 -27 2 -41 -19 -19 -54 -10 -69 18 -26 49 36
71 67 23z"/>
<path d="M6405 2008 c-27 -17 -103 -61 -168 -98 l-117 -68 105 -62 106 -61 33
20 c39 24 59 71 81 186 9 43 20 84 25 90 9 11 4 26 -9 24 -3 0 -28 -14 -56
-31z"/>
<path d="M4383 1810 c-29 -17 -53 -34 -53 -39 0 -13 77 -44 94 -38 10 4 16 19
17 39 0 18 2 41 4 51 4 23 -1 22 -62 -13z"/>
<path d="M4388 1691 c-26 -14 -46 -30 -45 -35 2 -4 21 -19 44 -33 l41 -24 7
56 c4 31 6 57 4 59 -2 2 -25 -8 -51 -23z"/>
<path d="M9670 1498 l0 -194 43 -24 c23 -13 195 -112 382 -220 455 -263 450
-260 468 -260 27 0 85 40 91 63 3 12 6 74 6 137 0 122 -15 176 -56 211 -10 9
-98 61 -194 116 -166 96 -178 101 -221 96 -43 -5 -55 0 -260 117 -118 68 -224
130 -236 138 l-23 14 0 -194z"/>
<path d="M9447 1663 c-13 -13 -7 -58 12 -90 37 -61 101 -50 86 15 -12 54 -73
101 -98 75z"/>
<path d="M6401 1608 c1 -13 4 -36 8 -53 6 -27 9 -30 41 -27 19 2 47 11 62 20
l27 16 -55 33 c-65 39 -84 42 -83 11z"/>
<path d="M6411 1458 c1 -24 4 -53 7 -65 l7 -23 29 19 30 20 -27 12 c-27 12
-43 41 -32 58 3 5 1 12 -5 16 -6 4 -10 -10 -9 -37z"/>
<path d="M6687 1459 c-37 -15 -92 -43 -121 -60 l-54 -33 38 -30 c21 -17 58
-48 82 -68 41 -35 51 -38 192 -62 173 -29 189 -38 184 -104 -3 -36 -1 -40 9
-25 7 9 13 34 13 55 0 30 -10 49 -47 95 -147 182 -215 263 -221 262 -4 -1 -37
-14 -75 -30z"/>
<path d="M6499 1423 c-13 -16 -12 -17 4 -4 9 7 17 15 17 17 0 8 -8 3 -21 -13z"/>
<path d="M6474 1344 c-18 -14 -18 -15 4 -4 12 6 22 13 22 15 0 8 -5 6 -26 -11z"/>
</g>
</svg>
